PathFileType	4	(X/Y/Z)	/Users/mathieubourgeois/Desktop/Analyse/Traitement/Sujet_06/Data/Transformed_Sujet_06_velo_80.trc
DataRate	CameraRate	NumFrames	NumMarkers	Units	OrigDataRate	OrigDataStartFrame	OrigNumFrames
120.000000	120.000000	4	36	mm	120.000000	236	1892
Frame#	Time	RFHD			RANE			STRN			LANI			LKNE			T10			RHUM			RWRB			C7			LFWT			LTOE			RTOE			LWRA			LBWT			RBWT			RFWT			LKNI			RKNI			RKNE			LANE			RANI			LHEE			RHEE			LHUM			LRAD			RRAD			RWRA			LWRB			LFHD			LBHD			RBHD			RSHO			LSHO			CLAV			LCAR			RCAR			
		X1	Y1	Z1	X2	Y2	Z2	X3	Y3	Z3	X4	Y4	Z4	X5	Y5	Z5	X6	Y6	Z6	X7	Y7	Z7	X8	Y8	Z8	X9	Y9	Z9	X10	Y10	Z10	X11	Y11	Z11	X12	Y12	Z12	X13	Y13	Z13	X14	Y14	Z14	X15	Y15	Z15	X16	Y16	Z16	X17	Y17	Z17	X18	Y18	Z18	X19	Y19	Z19	X20	Y20	Z20	X21	Y21	Z21	X22	Y22	Z22	X23	Y23	Z23	X24	Y24	Z24	X25	Y25	Z25	X26	Y26	Z26	X27	Y27	Z27	X28	Y28	Z28	X29	Y29	Z29	X30	Y30	Z30	X31	Y31	Z31	X32	Y32	Z32	X33	Y33	Z33	X34	Y34	Z34	X35	Y35	Z35	X36	Y36	Z36	

237	1.966666666666667	261.573974609375	1368.2841796875	109.668601989746	21.31981849670408	281.6782836914062	195.4627990722656	-40.65732574462891	1199.281127929688	42.90479660034172	-121.7429275512695	558.5858154296875	-51.03403091430669	116.5328216552735	850.58349609375	-128.2481689453125	-198.2359771728516	1344.846069335938	52.37683105468739	183.2370300292968	1124.64453125	222.7939758300781	387.9515686035156	1014.212951660156	175.7964019775391	36.25756072998046	1459.890747070312	49.21575927734366	-179.7683410644531	1109.113525390625	-59.88629913330087	-62.08279037475585	396.4301452636719	-127.7128372192383	200.930191040039	214.5577392578125	192.5774078369141	410.5716857910156	1031.103271484375	-119.9750595092773	-339.9175109863281	1139.762817382812	-3.938978910446278	-332.3896179199219	1135.69189453125	105.9118576049804	-174.0234375	1101.196533203125	150.9912719726562	136.9117889404297	807.9376831054688	-38.11670684814457	50.78418350219725	646.8931274414062	99.0718612670898	20.98708915710447	694.6931762695312	191.8541412353515	-146.2970275878906	571.7579956054688	-130.6810455322266	51.40222930908202	288.1659545898438	119.6959686279297	-191.3542633056641	597.6664428710938	-87.87404632568366	-30.71779251098635	267.6124877929688	150.1004791259765	188.9975128173828	1128.784057617188	-179.924789428711	224.8999786376953	1175.177001953125	-205.1938934326172	223.7925720214843	1154.990478515625	268.5245361328124	413.2962951660156	1021.993530273438	237.0670623779297	434.3624877929688	1036.040405273438	-178.9419097900391	261.6379089355469	1362.147705078125	-34.02768707275396	194.8799438476562	1496.970092773438	-39.37611389160163	198.377197265625	1521.888427734375	87.46350097656243	56.02930831909178	1414.144409179688	183.6201934814452	38.04133605957033	1413.427978515625	-103.5574874877931	43.05133438110351	1324.491455078125	41.96910095214837	487.1551513671875	1046.565307617188	-98.06763458251955	489.9420776367188	1046.409301757812	177.0241241455078	
238	1.975	261.9074096679688	1368.582641601562	109.2891769409179	13.58463764190671	275.330322265625	196.3207397460937	-40.17026901245118	1199.44677734375	42.82823562622062	-116.0179595947266	567.5267333984375	-50.52655410766607	120.0851211547852	860.6316528320312	-127.9413452148438	-197.9507751464844	1344.86083984375	53.02618026733388	183.2309112548828	1124.419067382812	223.3027191162109	387.9266052246094	1013.957336425781	176.0317535400391	36.41323471069335	1460.06689453125	49.03037643432609	-179.7304382324219	1109.658569335938	-59.52827835083017	-51.8792381286621	407.0885620117188	-127.5149993896485	191.8725891113281	203.8466033935547	192.7109069824219	410.6035461425781	1031.176879882812	-119.7414245605469	-339.751953125	1139.910766601562	-3.426093816757314	-331.9058837890625	1135.613891601562	106.3373260498046	-173.6677398681641	1101.031860351562	151.346710205078	143.4533081054688	819.1452026367188	-38.85817718505863	42.69953536987303	640.0596313476562	99.43766784667964	13.82873249053953	688.0366821289062	192.3027038574218	-140.3258056640625	580.337646484375	-130.3695983886719	43.84659957885741	280.95556640625	120.031753540039	-186.1380004882812	605.17529296875	-87.6753005981446	-38.60487747192385	261.3458251953125	150.14111328125	188.9965362548828	1128.764770507812	-179.7423706054688	224.8796081542969	1175.14404296875	-205.1074829101563	223.8512878417968	1154.821533203125	268.9771728515624	413.3317871093749	1021.6962890625	237.2763824462891	434.3707580566406	1036.145141601562	-178.6629333496094	261.7883605957031	1362.49609375	-34.40215682983403	194.9161071777344	1497.241577148438	-39.65351104736335	198.5506439208984	1522.17041015625	87.17932891845696	56.68664550781248	1414.281127929688	183.4620361328124	37.96175003051759	1413.513793945312	-103.7173767089845	43.45019912719726	1324.744384765625	41.84267044067376	487.2101745605469	1046.603515625	-97.8020477294922	489.8805236816406	1046.359741210938	177.2683410644531	
239	1.983333333333333	262.4475402832031	1369.254516601562	108.7408752441406	5.202633857727027	269.0561828613281	196.4266204833984	-39.76323699951173	1199.684326171875	42.73171997070305	-110.0571136474609	575.7402954101562	-50.18881988525396	123.507080078125	870.3397216796875	-127.4988861083985	-197.7182006835938	1344.894165039062	53.59916687011708	183.2228851318359	1124.137573242188	223.8455810546875	387.8831176757812	1013.727355957031	176.2369842529297	36.56991577148437	1460.255615234375	48.91514968872062	-179.7303161621094	1110.185668945312	-59.16872406005869	-41.18969726562499	417.1518859863281	-127.3575668334961	182.4317932128906	194.2751617431641	192.906478881836	410.5731811523438	1031.248168945312	-119.4878997802734	-339.6526184082031	1140.089965820312	-3.017472743988149	-331.5328674316406	1135.597290039062	106.7053985595702	-173.4014434814453	1100.896484375	151.664581298828	144.9566802978516	826.1804809570312	-35.37014389038089	34.85353851318358	633.9027709960938	99.80842590332027	6.944492340087867	682.08349609375	192.6669006347656	-134.2337493896484	587.94189453125	-130.1057281494141	35.80191040039061	274.5494384765625	120.2827758789062	-180.7135467529297	611.628662109375	-87.5991287231446	-46.87672424316408	255.8904876708984	150.007568359375	188.9269561767578	1128.655639648438	-179.5310363769532	224.7858581542969	1175.02978515625	-205.0386657714844	223.8717956542968	1154.5400390625	269.4255065917968	413.3379211425781	1021.377258300781	237.4346160888672	434.3925170898438	1036.281982421875	-178.4161987304688	261.9509582519531	1362.873291015625	-34.76901626586919	194.9053039550781	1497.552124023438	-39.86498260498054	198.6806793212891	1522.463745117188	86.96025848388665	57.27119827270506	1414.387451171875	183.3490905761718	37.93577194213869	1413.627075195312	-103.8034744262696	43.77449798583984	1324.932861328125	41.75996398925774	487.2160339355469	1046.6259765625	-97.55235290527345	489.7716979980469	1046.298583984375	177.5031280517578	
240	1.991666666666667	262.5823364257812	1369.362548828125	108.6774902343749	-3.558003664016748	263.5765380859375	196.4759521484375	-40.0333366394043	1200.220458984375	42.50803756713859	-103.5966110229492	582.2954711914062	-50.01831436157232	126.4536437988281	879.6453247070312	-127.0467071533204	-197.4842071533203	1344.97998046875	54.26530075073232	183.1957244873047	1123.80712890625	224.3921508789062	387.8249816894531	1013.492126464844	176.3964691162109	36.71362686157226	1460.418823242188	48.85171890258781	-179.7740631103516	1110.720947265625	-58.8384895324708	-29.98928260803221	426.5830993652344	-127.2888412475586	172.4731140136718	185.5151977539062	193.1695404052735	410.5262756347656	1031.271118164062	-119.2595291137695	-339.5903625488281	1140.325073242188	-2.640165567398183	-331.1928100585938	1135.605102539062	107.0238037109374	-173.1950225830078	1100.792236328125	151.9214324951171	142.7526092529297	832.1458129882812	-31.62531852722171	28.44898796081542	628.8049926757812	99.85453796386714	0.3240993320941689	676.7985229492188	192.8906555175781	-127.8963241577148	594.595458984375	-129.8636322021485	27.5288734436035	268.8838500976562	120.5215835571289	-175.1269989013672	616.9729614257812	-87.57608795166023	-55.59284591674807	251.2469940185547	149.7230987548828	188.8270721435547	1128.459228515625	-179.3387908935547	224.587142944336	1174.807495117188	-205.026351928711	223.8617401123047	1154.228271484375	269.9486083984374	413.3865356445312	1021.031921386719	237.5777893066406	434.3538818359375	1036.355224609375	-178.2187194824219	262.0986938476562	1363.251586914062	-35.04136657714849	194.8915252685547	1497.865478515625	-40.00824356079109	198.7516021728516	1522.7451171875	86.8194503784179	57.86705017089842	1414.428588867188	183.3544769287109	37.96180725097658	1413.681396484375	-103.8651809692384	44.04261398315429	1325.12158203125	41.7813415527343	487.1733093261719	1046.669311523438	-97.32413482666017	489.6401977539062	1046.259765625	177.7178039550781	
